<?xml version="1.0" standalone="no"?>
<!DOCTYPE svg PUBLIC "-//W3C//DTD SVG 20010904//EN"
 "http://www.w3.org/TR/2001/REC-SVG-20010904/DTD/svg10.dtd">
<svg version="1.0" xmlns="http://www.w3.org/2000/svg"
 width="700.000000pt" height="700.000000pt" viewBox="0 0 700.000000 700.000000"
 preserveAspectRatio="xMidYMid meet">
<metadata>
Created by potrace 1.14, written by Peter Selinger 2001-2017
</metadata>
<g transform="translate(0.000000,700.000000) scale(0.100000,-0.100000)"
fill="#000000" stroke="none">
<path d="M3369 6996 c-2 -2 -30 -7 -61 -10 -196 -23 -479 -141 -628 -262 -185
-151 -234 -228 -232 -369 1 -80 36 -157 105 -231 69 -74 653 -658 719 -719 73
-68 155 -97 256 -90 121 9 132 18 557 443 214 213 401 407 417 432 37 57 51
110 50 186 -1 77 -42 172 -98 228 -191 191 -434 320 -700 372 -77 14 -374 30
-385 20z"/>
<path d="M4855 5976 c-27 -7 -70 -24 -95 -39 -25 -14 -219 -201 -432 -414
-446 -449 -443 -444 -443 -588 0 -148 -3 -143 421 -568 393 -394 422 -417 541
-442 125 -26 241 0 337 75 79 60 741 731 761 769 51 101 54 205 7 304 -27 58
-70 104 -416 450 -212 213 -402 397 -423 410 -76 48 -172 64 -258 43z"/>
<path d="M1925 5764 c-414 -73 -707 -428 -699 -845 1 -57 7 -126 14 -154 6
-27 13 -58 15 -68 8 -39 73 -175 110 -232 68 -105 187 -212 305 -277 46 -25
149 -65 185 -72 11 -3 40 -9 64 -14 56 -13 232 -13 296 -1 269 54 491 221 604
454 50 104 57 124 77 224 16 81 16 249 0 320 -60 266 -224 477 -461 591 -157
76 -346 103 -510 74z"/>
<path d="M582 4549 c-120 -22 -225 -110 -352 -297 -144 -210 -220 -455 -225
-722 -4 -215 25 -372 104 -561 80 -191 258 -426 366 -482 98 -51 224 -51 317
0 35 19 166 144 430 408 210 209 391 393 403 410 33 43 67 150 64 204 -3 56
-34 145 -64 186 -44 59 -771 779 -815 807 -68 44 -151 60 -228 47z"/>
<path d="M6300 4545 c-30 -6 -73 -21 -95 -32 -45 -23 -805 -777 -840 -833 -29
-47 -51 -115 -54 -171 -3 -54 30 -160 63 -204 47 -61 772 -779 816 -807 144
-92 318 -60 448 83 68 76 82 94 130 164 159 233 235 496 227 790 -2 77 -6 151
-9 165 -3 14 -9 41 -12 60 -30 175 -116 371 -234 535 -150 209 -281 283 -440
250z"/>
<path d="M3374 4334 c-613 -97 -918 -797 -571 -1308 132 -195 350 -330 582
-361 137 -19 301 -1 410 44 253 105 423 282 503 524 132 398 -39 822 -410
1016 -154 80 -343 112 -514 85z"/>
<path d="M1960 3103 c-25 -8 -63 -28 -85 -43 -22 -16 -212 -201 -422 -412
-321 -322 -386 -392 -407 -438 -29 -63 -39 -146 -25 -208 22 -100 41 -123 409
-492 196 -196 377 -371 402 -388 129 -89 307 -95 448 -15 50 28 734 703 779
768 45 64 64 137 59 216 -9 127 -16 135 -454 573 -447 447 -450 449 -584 453
-46 1 -92 -4 -120 -14z"/>
<path d="M3425 1680 c-90 -22 -122 -49 -517 -445 -415 -415 -440 -444 -455
-546 -19 -120 18 -218 118 -316 140 -137 321 -244 516 -308 84 -27 88 -28 193
-47 83 -15 368 -15 440 0 30 6 70 14 88 17 175 29 455 180 614 331 68 65 92
99 113 160 32 94 20 201 -33 284 -29 45 -744 768 -808 817 -65 49 -188 74
-269 53z"/>
</g>
</svg>
