<?xml version="1.0" standalone="no"?>
<!DOCTYPE svg PUBLIC "-//W3C//DTD SVG 20010904//EN"
 "http://www.w3.org/TR/2001/REC-SVG-20010904/DTD/svg10.dtd">
<svg version="1.0" xmlns="http://www.w3.org/2000/svg"
 width="700.000000pt" height="700.000000pt" viewBox="0 0 700.000000 700.000000"
 preserveAspectRatio="xMidYMid meet">
<metadata>
Created by potrace 1.14, written by Peter Selinger 2001-2017
</metadata>
<g transform="translate(0.000000,700.000000) scale(0.100000,-0.100000)"
fill="#000000" stroke="none">
<path d="M3332 6989 c-300 -40 -595 -186 -780 -383 -101 -108 -128 -233 -81
-363 20 -54 49 -86 423 -461 460 -462 466 -467 606 -466 142 0 141 -1 602 462
378 379 407 411 427 465 28 76 28 168 0 244 -18 47 -38 74 -108 143 -177 175
-409 294 -671 345 -104 20 -320 27 -418 14z"/>
<path d="M4873 5979 c-106 -20 -120 -33 -531 -442 -456 -455 -457 -456 -457
-607 0 -142 -2 -139 432 -571 320 -318 387 -380 435 -403 113 -52 250 -51 368
5 58 27 103 68 418 382 195 194 367 371 383 394 43 62 61 119 61 199 1 137 1
137 -460 596 -343 341 -415 408 -457 425 -61 25 -136 34 -192 22z"/>
<path d="M1961 5770 c-345 -48 -622 -295 -712 -635 -30 -113 -30 -278 0 -400
60 -246 218 -443 447 -556 255 -126 541 -117 794 24 101 57 250 205 307 307
175 312 141 695 -85 966 -178 212 -482 331 -751 294z"/>
<path d="M510 4528 c-43 -16 -74 -40 -140 -107 -238 -241 -364 -560 -364 -921
0 -361 126 -680 364 -921 69 -70 96 -90 143 -108 76 -28 168 -28 244 0 54 20
86 49 465 427 463 461 462 460 462 602 0 142 1 141 -462 602 -379 378 -411
407 -465 427 -76 28 -173 27 -247 -1z"/>
<path d="M6240 4528 c-50 -19 -93 -58 -462 -426 -463 -461 -462 -460 -462
-602 0 -142 -1 -141 462 -602 379 -378 411 -407 465 -427 76 -28 168 -28 244
0 107 40 264 221 369 427 95 186 138 374 138 602 0 361 -126 680 -364 921 -69
70 -96 90 -143 108 -75 28 -172 27 -247 -1z"/>
<path d="M3325 4325 c-275 -61 -514 -264 -610 -519 -95 -252 -68 -530 72 -755
243 -390 768 -509 1163 -263 389 242 508 767 262 1162 -117 189 -319 328 -544
375 -84 18 -261 18 -343 0z"/>
<path d="M1973 3106 c-23 -7 -62 -25 -85 -39 -24 -14 -219 -202 -434 -419
-367 -368 -393 -397 -414 -453 -33 -87 -31 -183 5 -262 23 -53 70 -103 408
-440 348 -345 388 -382 445 -407 119 -52 270 -44 382 21 25 14 203 183 408
387 420 418 427 427 427 571 0 147 14 128 -444 588 -453 455 -456 457 -584
463 -43 3 -89 -2 -114 -10z"/>
<path d="M3419 1677 c-25 -7 -65 -25 -90 -39 -24 -15 -222 -206 -440 -425
-369 -370 -398 -402 -418 -456 -28 -76 -28 -168 0 -244 40 -107 221 -264 427
-369 186 -95 374 -138 602 -138 361 0 680 126 921 364 70 69 90 96 108 143 28
76 28 168 0 244 -20 54 -49 86 -427 465 -352 354 -413 410 -462 432 -70 31
-158 41 -221 23z"/>
</g>
</svg>
